# xmcd CD database file
#
# Track frame offsets:
#	187
#	10247
#	25912
#	41805
#	50645
#	68500
#	81137
#	95820
#	115567
#	128345
#	143365
#	154990
#
# Disc length: 2284 seconds
#
# Revision: 0
# Processed by: cddbd v1.5.1PL2 Copyright (c) Steve Scherf et al.
# Submitted via: CDex 1.60beta1
#
DISCID=9108ea0c
DTITLE=Julie Wilson - JUlie Wilson At The St.Regis
DYEAR=1957
DGENRE=Jazz
TTITLE0=Most Gentlemen Don't Like Love
TTITLE1=Twelve Good Men And True
TTITLE2=Every Baby Needs A Da Da Daddy
TTITLE3=What's A Woman
TTITLE4=Too Naive
TTITLE5=What Is There To Say
TTITLE6=I Refuse To Rock And Roll
TTITLE7=A Man Could Be A Wonderful Thing
TTITLE8=Unathletic Me
TTITLE9=Married I Can Always Get
TTITLE10=A Woman Without Experience
TTITLE11=A Bad Bad Woman
EXTD=YEAR: 1957
EXTT0=
EXTT1=
EXTT2=
EXTT3=
EXTT4=
EXTT5=
EXTT6=
EXTT7=
EXTT8=
EXTT9=
EXTT10=
EXTT11=
PLAYORDER=
